<svg xmlns="http://www.w3.org/2000/svg" viewBox="0 0 20 20"><defs><style>.cls-1{fill:#0049ac;}.cls-2{fill:#fff;}</style></defs><g id="Capa_2" data-name="Capa 2"><g id="Capa_1-2" data-name="Capa 1"><circle class="cls-1" cx="10" cy="10" r="10"/><path class="cls-2" d="M8.56,4.26H9.3l.09,0a3.66,3.66,0,0,1,3,2.13,3.55,3.55,0,0,1,.33,1.73.83.83,0,0,0,.09.44c.22.43.44.86.65,1.29a.7.7,0,0,1-.6,1h-.15v.28a.36.36,0,0,1-.29.41l-.72.25.65.33a.31.31,0,0,1,.18.3,1.07,1.07,0,0,1-1,1.08,5.56,5.56,0,0,1-.81-.08l-.58-.09a.62.62,0,0,1,0,.1l-.57,2a.35.35,0,0,1-.53.27L6,14.55c-.31-.12-.38-.32-.2-.6a4,4,0,0,0,.5-1.14A2.5,2.5,0,0,0,6.13,11c-.13-.24-.25-.5-.37-.75a5.23,5.23,0,0,1-.53-1.59c0-.2,0-.39-.06-.59V7.91c0-.15,0-.3,0-.45a3.62,3.62,0,0,1,2.61-3C8.07,4.34,8.32,4.31,8.56,4.26Z"/><path class="cls-2" d="M17,11.81a4,4,0,0,1-1,2.67c-.11.12-.2.12-.32,0l-.18-.18c-.11-.12-.11-.19,0-.31a3,3,0,0,0,.72-1.5,3.05,3.05,0,0,0-.69-2.59c-.14-.18-.14-.22,0-.39s.11-.11.16-.16a.18.18,0,0,1,.29,0A3.74,3.74,0,0,1,17,11.14C17,11.4,17,11.67,17,11.81Z"/><path class="cls-2" d="M15.64,11.89a2.47,2.47,0,0,1-.54,1.57c-.12.16-.21.16-.35,0l-.17-.17c-.11-.11-.11-.17,0-.3a1.69,1.69,0,0,0,.24-1.73,2,2,0,0,0-.26-.44c-.07-.12-.07-.18,0-.28l.2-.2a.18.18,0,0,1,.31,0A2.41,2.41,0,0,1,15.64,11.89Z"/><path class="cls-2" d="M14.24,12a1,1,0,0,1-.15.53.17.17,0,0,1-.3,0l-.23-.23a.22.22,0,0,1-.05-.22.66.66,0,0,0,0-.28.2.2,0,0,1,0-.21l.25-.24a.17.17,0,0,1,.28,0A1,1,0,0,1,14.24,12Z"/></g></g></svg>